{
  "accessors": [
    {
      "bufferView": 2,
      "componentType": 5126,
      "count": 1216,
      "max": [
        1.0433416366577148,
        1.0433415174484253,
        1.0
      ],
      "min": [
        -1.0433416366577148,
        -1.0433416366577148,
        -5.80224609375
      ],
      "type": "VEC3"
    },
    {
      "bufferView": 2,
      "byteOffset": 14592,
      "componentType": 5126,
      "count": 1216,
      "max": [
        0.9951847791671753,
        0.9951848387718201,
        1.0
      ],
      "min": [
        -0.9951847791671753,
        -0.9951848387718201,
        -1.0
      ],
      "type": "VEC3"
    },
    {
      "bufferView": 1,
      "componentType": 5126,
      "count": 1216,
      "max": [
        0.9980343580245972,
        0.9593701958656311
      ],
      "min": [
        0.9242458939552307,
        0.7900592088699341
      ],
      "type": "VEC2"
    },
    {
      "bufferView": 0,
      "componentType": 5125,
      "count": 1908,
      "type": "SCALAR"
    },
    {
      "bufferView": 2,
      "byteOffset": 29184,
      "componentType": 5126,
      "count": 1984,
      "max": [
        1.0154786109924316,
        1.0154789686203003,
        1.427879810333252
      ],
      "min": [
        -1.0154780149459839,
        -1.0154789686203003,
        0.5412999391555786
      ],
      "type": "VEC3"
    },
    {
      "bufferView": 2,
      "byteOffset": 52992,
      "componentType": 5126,
      "count": 1984,
      "max": [
        0.9710087180137634,
        0.9949415922164917,
        0.9981566071510315
      ],
      "min": [
        -0.9710087776184082,
        -0.9949415326118469,
        -0.998156726360321
      ],
      "type": "VEC3"
    },
    {
      "bufferView": 1,
      "byteOffset": 9728,
      "componentType": 5126,
      "count": 1984,
      "max": [
        0.9958661198616028,
        0.9577800631523132
      ],
      "min": [
        0.9787433743476868,
        0.9406573176383972
      ],
      "type": "VEC2"
    },
    {
      "bufferView": 0,
      "byteOffset": 7632,
      "componentType": 5125,
      "count": 2880,
      "type": "SCALAR"
    },
    {
      "bufferView": 2,
      "byteOffset": 76800,
      "componentType": 5126,
      "count": 1708,
      "max": [
        0.5975327491760254,
        2.240358352661133,
        0.7742798328399658
      ],
      "min": [
        -0.5975327491760254,
        0.7811276912689209,
        0.06338956952095032
      ],
      "type": "VEC3"
    },
    {
      "bufferView": 2,
      "byteOffset": 97296,
      "componentType": 5126,
      "count": 1708,
      "max": [
        0.9951848983764648,
        1.0,
        0.995185136795044
      ],
      "min": [
        -0.9951848387718201,
        -1.0,
        -0.9951850771903992
      ],
      "type": "VEC3"
    },
    {
      "bufferView": 1,
      "byteOffset": 25600,
      "componentType": 5126,
      "count": 1708,
      "max": [
        0.9784335494041443,
        0.9357788562774658
      ],
      "min": [
        0.5490681529045105,
        0.9009600877761841
      ],
      "type": "VEC2"
    },
    {
      "bufferView": 0,
      "byteOffset": 19152,
      "componentType": 5125,
      "count": 2676,
      "type": "SCALAR"
    },
    {
      "bufferView": 2,
      "byteOffset": 117792,
      "componentType": 5126,
      "count": 232,
      "max": [
        1.5668760538101196,
        -1.1076037883758545,
        1.6512565612792969
      ],
      "min": [
        -1.5668760538101196,
        -1.8035331964492798,
        -6.949218273162842
      ],
      "type": "VEC3"
    },
    {
      "bufferView": 2,
      "byteOffset": 120576,
      "componentType": 5126,
      "count": 232,
      "max": [
        1.0,
        1.0,
        1.0
      ],
      "min": [
        -1.0,
        -1.0,
        -1.0
      ],
      "type": "VEC3"
    },
    {
      "bufferView": 1,
      "byteOffset": 39264,
      "componentType": 5126,
      "count": 232,
      "max": [
        0.9905363321304321,
        0.9522255063056946
      ],
      "min": [
        0.48589038848876953,
        0.6813145279884338
      ],
      "type": "VEC2"
    },
    {
      "bufferView": 0,
      "byteOffset": 29856,
      "componentType": 5125,
      "count": 420,
      "type": "SCALAR"
    },
    {
      "bufferView": 2,
      "byteOffset": 123360,
      "componentType": 5126,
      "count": 52,
      "max": [
        1.2573518753051758,
        -0.3441063165664673,
        0.6688706278800964
      ],
      "min": [
        0.711722731590271,
        -1.108048677444458,
        -0.347135066986084
      ],
      "type": "VEC3"
    },
    {
      "bufferView": 2,
      "byteOffset": 123984,
      "componentType": 5126,
      "count": 52,
      "max": [
        1.0,
        1.0,
        1.0
      ],
      "min": [
        -1.0,
        -1.0,
        -1.0
      ],
      "type": "VEC3"
    },
    {
      "bufferView": 1,
      "byteOffset": 41120,
      "componentType": 5126,
      "count": 52,
      "max": [
        0.8721234798431396,
        0.9386093616485596
      ],
      "min": [
        0.8673677444458008,
        0.932268500328064
      ],
      "type": "VEC2"
    },
    {
      "bufferView": 0,
      "byteOffset": 31536,
      "componentType": 5125,
      "count": 84,
      "type": "SCALAR"
    },
    {
      "bufferView": 2,
      "byteOffset": 124608,
      "componentType": 5126,
      "count": 46,
      "max": [
        -0.7039248943328857,
        -0.3959149122238159,
        0.6688706278800964
      ],
      "min": [
        -1.249553918838501,
        -1.108048677444458,
        -0.3471350073814392
      ],
      "type": "VEC3"
    },
    {
      "bufferView": 2,
      "byteOffset": 125160,
      "componentType": 5126,
      "count": 46,
      "max": [
        1.0,
        1.0,
        1.0
      ],
      "min": [
        -1.0,
        -1.0,
        -1.0
      ],
      "type": "VEC3"
    },
    {
      "bufferView": 1,
      "byteOffset": 41536,
      "componentType": 5126,
      "count": 46,
      "max": [
        0.8607690334320068,
        0.9324526190757751
      ],
      "min": [
        0.8585219383239746,
        0.9294565320014954
      ],
      "type": "VEC2"
    },
    {
      "bufferView": 0,
      "byteOffset": 31872,
      "componentType": 5125,
      "count": 84,
      "type": "SCALAR"
    },
    {
      "bufferView": 2,
      "byteOffset": 125712,
      "componentType": 5126,
      "count": 95,
      "max": [
        1.084780216217041,
        -0.5541439056396484,
        -0.9056715369224548
      ],
      "min": [
        0.5797666311264038,
        -1.1200922727584839,
        -1.634934663772583
      ],
      "type": "VEC3"
    },
    {
      "bufferView": 2,
      "byteOffset": 126852,
      "componentType": 5126,
      "count": 95,
      "max": [
        1.0,
        0.9968026876449585,
        1.0
      ],
      "min": [
        -1.0,
        -1.0,
        -1.0
      ],
      "type": "VEC3"
    },
    {
      "bufferView": 1,
      "byteOffset": 41904,
      "componentType": 5126,
      "count": 95,
      "max": [
        0.9960662722587585,
        0.9366061091423035
      ],
      "min": [
        0.9838590025901794,
        0.7908488512039185
      ],
      "type": "VEC2"
    },
    {
      "bufferView": 0,
      "byteOffset": 32208,
      "componentType": 5125,
      "count": 150,
      "type": "SCALAR"
    },
    {
      "bufferView": 2,
      "byteOffset": 127992,
      "componentType": 5126,
      "count": 1648,
      "max": [
        1.5159331560134888,
        2.409975528717041,
        -2.072410821914673
      ],
      "min": [
        -1.4878177642822266,
        -1.110817551612854,
        -6.960251808166504
      ],
      "type": "VEC3"
    },
    {
      "bufferView": 2,
      "byteOffset": 147768,
      "componentType": 5126,
      "count": 1648,
      "max": [
        1.0,
        1.0,
        1.0
      ],
      "min": [
        -1.0,
        -1.0,
        -1.0
      ],
      "type": "VEC3"
    },
    {
      "bufferView": 1,
      "byteOffset": 42664,
      "componentType": 5126,
      "count": 1648,
      "max": [
        0.9980207085609436,
        0.9902706146240234
      ],
      "min": [
        0.019316911697387695,
        0.208684504032135
      ],
      "type": "VEC2"
    },
    {
      "bufferView": 0,
      "byteOffset": 32808,
      "componentType": 5125,
      "count": 4074,
      "type": "SCALAR"
    },
    {
      "bufferView": 2,
      "byteOffset": 167544,
      "componentType": 5126,
      "count": 934,
      "max": [
        -0.8771775960922241,
        -1.2822972536087036,
        1.888248085975647
      ],
      "min": [
        -1.3180452585220337,
        -1.7231649160385132,
        1.5212942361831665
      ],
      "type": "VEC3"
    },
    {
      "bufferView": 2,
      "byteOffset": 178752,
      "componentType": 5126,
      "count": 934,
      "max": [
        0.9951850175857544,
        0.995185136795044,
        1.0
      ],
      "min": [
        -0.9951850175857544,
        -0.995185136795044,
        -1.0
      ],
      "type": "VEC3"
    },
    {
      "bufferView": 1,
      "byteOffset": 55848,
      "componentType": 5126,
      "count": 934,
      "max": [
        0.5795791149139404,
        0.9485257863998413
      ],
      "min": [
        0.4712583124637604,
        0.7234305143356323
      ],
      "type": "VEC2"
    },
    {
      "bufferView": 0,
      "byteOffset": 49104,
      "componentType": 5125,
      "count": 1524,
      "type": "SCALAR"
    },
    {
      "bufferView": 2,
      "byteOffset": 189960,
      "componentType": 5126,
      "count": 192,
      "max": [
        0.485556960105896,
        1.729736089706421,
        -1.4404841661453247
      ],
      "min": [
        -0.485556960105896,
        0.7586221694946289,
        -2.4115982055664063
      ],
      "type": "VEC3"
    },
    {
      "bufferView": 2,
      "byteOffset": 192264,
      "componentType": 5126,
      "count": 192,
      "max": [
        0.9951847791671753,
        1.0,
        0.9951847791671753
      ],
      "min": [
        -0.9951847791671753,
        -1.0,
        -0.9951847195625305
      ],
      "type": "VEC3"
    },
    {
      "bufferView": 1,
      "byteOffset": 63320,
      "componentType": 5126,
      "count": 192,
      "max": [
        0.9978785514831543,
        0.7912682890892029
      ],
      "min": [
        0.9963634014129639,
        0.7897682785987854
      ],
      "type": "VEC2"
    },
    {
      "bufferView": 0,
      "byteOffset": 55200,
      "componentType": 5125,
      "count": 372,
      "type": "SCALAR"
    },
    {
      "bufferView": 2,
      "byteOffset": 194568,
      "componentType": 5126,
      "count": 1984,
      "max": [
        0.48299065232276917,
        2.168445348739624,
        -1.4442064762115479
      ],
      "min": [
        -0.4829903542995453,
        1.2024638652801514,
        -2.410187244415283
      ],
      "type": "VEC3"
    },
    {
      "bufferView": 2,
      "byteOffset": 218376,
      "componentType": 5126,
      "count": 1984,
      "max": [
        0.9904384613037109,
        0.9951397180557251,
        0.9904385805130005
      ],
      "min": [
        -0.99043869972229,
        -0.995138943195343,
        -0.9904387593269348
      ],
      "type": "VEC3"
    },
    {
      "bufferView": 1,
      "byteOffset": 64856,
      "componentType": 5126,
      "count": 1984,
      "max": [
        0.9946157932281494,
        0.7914565205574036
      ],
      "min": [
        0.9931768178939819,
        0.7900175452232361
      ],
      "type": "VEC2"
    },
    {
      "bufferView": 0,
      "byteOffset": 56688,
      "componentType": 5125,
      "count": 2880,
      "type": "SCALAR"
    },
    {
      "bufferView": 2,
      "byteOffset": 242184,
      "componentType": 5126,
      "count": 3732,
      "max": [
        1.2181066274642944,
        0.7376657128334045,
        1.1013997793197632
      ],
      "min": [
        -1.2181066274642944,
        -3.178342342376709,
        -3.6881232261657715
      ],
      "type": "VEC3"
    },
    {
      "bufferView": 2,
      "byteOffset": 286968,
      "componentType": 5126,
      "count": 3732,
      "max": [
        1.0,
        1.0,
        0.9951848983764648
      ],
      "min": [
        -1.0,
        -1.0,
        -0.9951848387718201
      ],
      "type": "VEC3"
    },
    {
      "bufferView": 1,
      "byteOffset": 80728,
      "componentType": 5126,
      "count": 3732,
      "max": [
        1.0,
        1.0
      ],
      "min": [
        0.0,
        0.01000000536441803
      ],
      "type": "VEC2"
    },
    {
      "bufferView": 0,
      "byteOffset": 68208,
      "componentType": 5125,
      "count": 6096,
      "type": "SCALAR"
    },
    {
      "bufferView": 2,
      "byteOffset": 331752,
      "componentType": 5126,
      "count": 934,
      "max": [
        1.3198939561843872,
        -1.2822972536087036,
        1.888248085975647
      ],
      "min": [
        0.8790262937545776,
        -1.7231649160385132,
        1.5212942361831665
      ],
      "type": "VEC3"
    },
    {
      "bufferView": 2,
      "byteOffset": 342960,
      "componentType": 5126,
      "count": 934,
      "max": [
        0.9951849579811096,
        0.995185136795044,
        1.0
      ],
      "min": [
        -0.9951847791671753,
        -0.995185136795044,
        -1.0
      ],
      "type": "VEC3"
    },
    {
      "bufferView": 1,
      "byteOffset": 110584,
      "componentType": 5126,
      "count": 934,
      "max": [
        0.5795791149139404,
        0.9485257863998413
      ],
      "min": [
        0.4712583124637604,
        0.7234305143356323
      ],
      "type": "VEC2"
    },
    {
      "bufferView": 0,
      "byteOffset": 92592,
      "componentType": 5125,
      "count": 1524,
      "type": "SCALAR"
    },
    {
      "bufferView": 2,
      "byteOffset": 354168,
      "componentType": 5126,
      "count": 3342,
      "max": [
        1.2181066274642944,
        -1.1756855249404907,
        -1.682603359222412
      ],
      "min": [
        -1.2181066274642944,
        -3.178342342376709,
        -3.6852598190307617
      ],
      "type": "VEC3"
    },
    {
      "bufferView": 2,
      "byteOffset": 394272,
      "componentType": 5126,
      "count": 3342,
      "max": [
        1.0,
        0.9951849579811096,
        0.9951848387718201
      ],
      "min": [
        -1.0,
        -0.9951848387718201,
        -0.9951848387718201
      ],
      "type": "VEC3"
    },
    {
      "bufferView": 1,
      "byteOffset": 118056,
      "componentType": 5126,
      "count": 3342,
      "max": [
        0.9839597940444946,
        0.9753319621086121
      ],
      "min": [
        0.6848175525665283,
        0.92491215467453
      ],
      "type": "VEC2"
    },
    {
      "bufferView": 0,
      "byteOffset": 98688,
      "componentType": 5125,
      "count": 5352,
      "type": "SCALAR"
    },
    {
      "bufferView": 2,
      "byteOffset": 434376,
      "componentType": 5126,
      "count": 3350,
      "max": [
        1.2181066274642944,
        -1.1756857633590698,
        -4.461360931396484
      ],
      "min": [
        -1.2181066274642944,
        -3.178342342376709,
        -6.464016914367676
      ],
      "type": "VEC3"
    },
    {
      "bufferView": 2,
      "byteOffset": 474576,
      "componentType": 5126,
      "count": 3350,
      "max": [
        1.0,
        0.9951848387718201,
        0.9951849579811096
      ],
      "min": [
        -1.0,
        -0.9951850771903992,
        -0.9951849579811096
      ],
      "type": "VEC3"
    },
    {
      "bufferView": 1,
      "byteOffset": 144792,
      "componentType": 5126,
      "count": 3350,
      "max": [
        0.9839597940444946,
        0.9753319621086121
      ],
      "min": [
        0.6848175525665283,
        0.92491215467453
      ],
      "type": "VEC2"
    },
    {
      "bufferView": 0,
      "byteOffset": 120096,
      "componentType": 5125,
      "count": 5352,
      "type": "SCALAR"
    },
    {
      "bufferView": 2,
      "byteOffset": 514776,
      "componentType": 5126,
      "count": 232,
      "max": [
        1.2888458967208862,
        -2.384265184402466,
        -0.24327655136585236
      ],
      "min": [
        1.1859654188156128,
        -2.7845914363861084,
        -3.244198799133301
      ],
      "type": "VEC3"
    },
    {
      "bufferView": 2,
      "byteOffset": 517560,
      "componentType": 5126,
      "count": 232,
      "max": [
        1.0,
        0.9979738593101501,
        0.9987307190895081
      ],
      "min": [
        -1.0,
        -0.9979738593101501,
        -0.9963219165802002
      ],
      "type": "VEC3"
    },
    {
      "bufferView": 1,
      "byteOffset": 171592,
      "componentType": 5126,
      "count": 232,
      "max": [
        0.9809149503707886,
        0.9870444536209106
      ],
      "min": [
        0.8098493814468384,
        0.9594682455062866
      ],
      "type": "VEC2"
    },
    {
      "bufferView": 0,
      "byteOffset": 141504,
      "componentType": 5125,
      "count": 372,
      "type": "SCALAR"
    },
    {
      "bufferView": 2,
      "byteOffset": 520344,
      "componentType": 5126,
      "count": 688,
      "max": [
        1.3105179071426392,
        -2.4554760456085205,
        -0.3098334074020386
      ],
      "min": [
        1.2756561040878296,
        -2.53692364692688,
        -0.3912811875343323
      ],
      "type": "VEC3"
    },
    {
      "bufferView": 2,
      "byteOffset": 528600,
      "componentType": 5126,
      "count": 688,
      "max": [
        1.0,
        0.9951876997947693,
        0.9951850771903992
      ],
      "min": [
        -1.0,
        -0.9951919913291931,
        -0.9951850771903992
      ],
      "type": "VEC3"
    },
    {
      "bufferView": 1,
      "byteOffset": 173448,
      "componentType": 5126,
      "count": 688,
      "max": [
        0.9810075759887695,
        0.9819211363792419
      ],
      "min": [
        0.6036815643310547,
        0.922474205493927
      ],
      "type": "VEC2"
    },
    {
      "bufferView": 0,
      "byteOffset": 142992,
      "componentType": 5125,
      "count": 1140,
      "type": "SCALAR"
    },
    {
      "bufferView": 2,
      "byteOffset": 536856,
      "componentType": 5126,
      "count": 690,
      "max": [
        1.3105179071426392,
        -2.631098747253418,
        -3.0953922271728516
      ],
      "min": [
        1.2756561040878296,
        -2.7125463485717773,
        -3.176839828491211
      ],
      "type": "VEC3"
    },
    {
      "bufferView": 2,
      "byteOffset": 545136,
      "componentType": 5126,
      "count": 690,
      "max": [
        1.0,
        0.9951878190040588,
        0.9951881170272827
      ],
      "min": [
        -1.0,
        -0.9951878190040588,
        -0.9951876997947693
      ],
      "type": "VEC3"
    },
    {
      "bufferView": 1,
      "byteOffset": 178952,
      "componentType": 5126,
      "count": 690,
      "max": [
        0.9810075759887695,
        0.9819211363792419
      ],
      "min": [
        0.6036815643310547,
        0.922474205493927
      ],
      "type": "VEC2"
    },
    {
      "bufferView": 0,
      "byteOffset": 147552,
      "componentType": 5125,
      "count": 1140,
      "type": "SCALAR"
    },
    {
      "bufferView": 2,
      "byteOffset": 553416,
      "componentType": 5126,
      "count": 232,
      "max": [
        1.2888458967208862,
        -1.630003571510315,
        -3.1129567623138428
      ],
      "min": [
        1.1859654188156128,
        -2.030329704284668,
        -6.113879203796387
      ],
      "type": "VEC3"
    },
    {
      "bufferView": 2,
      "byteOffset": 556200,
      "componentType": 5126,
      "count": 232,
      "max": [
        1.0,
        0.9979738593101501,
        0.9987307190895081
      ],
      "min": [
        -1.0,
        -0.9979738593101501,
        -0.9963219165802002
      ],
      "type": "VEC3"
    },
    {
      "bufferView": 1,
      "byteOffset": 184472,
      "componentType": 5126,
      "count": 232,
      "max": [
        0.9809149503707886,
        0.9870444536209106
      ],
      "min": [
        0.8098493814468384,
        0.9594682455062866
      ],
      "type": "VEC2"
    },
    {
      "bufferView": 0,
      "byteOffset": 152112,
      "componentType": 5125,
      "count": 372,
      "type": "SCALAR"
    },
    {
      "bufferView": 2,
      "byteOffset": 558984,
      "componentType": 5126,
      "count": 690,
      "max": [
        1.3105179071426392,
        -1.70121431350708,
        -3.179513454437256
      ],
      "min": [
        1.2756561040878296,
        -1.7826621532440186,
        -3.2609610557556152
      ],
      "type": "VEC3"
    },
    {
      "bufferView": 2,
      "byteOffset": 567264,
      "componentType": 5126,
      "count": 690,
      "max": [
        1.0,
        0.9951858520507813,
        0.9951878786087036
      ],
      "min": [
        -1.0,
        -0.9951863884925842,
        -0.9951878786087036
      ],
      "type": "VEC3"
    },
    {
      "bufferView": 1,
      "byteOffset": 186328,
      "componentType": 5126,
      "count": 690,
      "max": [
        0.9810075759887695,
        0.9819211363792419
      ],
      "min": [
        0.6036815643310547,
        0.922474205493927
      ],
      "type": "VEC2"
    },
    {
      "bufferView": 0,
      "byteOffset": 153600,
      "componentType": 5125,
      "count": 1140,
      "type": "SCALAR"
    },
    {
      "bufferView": 2,
      "byteOffset": 575544,
      "componentType": 5126,
      "count": 684,
      "max": [
        1.3105179071426392,
        -1.876836895942688,
        -5.965072154998779
      ],
      "min": [
        1.2756561040878296,
        -1.9582847356796265,
        -6.046519756317139
      ],
      "type": "VEC3"
    },
    {
      "bufferView": 2,
      "byteOffset": 583752,
      "componentType": 5126,
      "count": 684,
      "max": [
        1.0,
        0.9951861500740051,
        0.9951878786087036
      ],
      "min": [
        -1.0,
        -0.9951863884925842,
        -0.9951878786087036
      ],
      "type": "VEC3"
    },
    {
      "bufferView": 1,
      "byteOffset": 191848,
      "componentType": 5126,
      "count": 684,
      "max": [
        0.9810075759887695,
        0.9819211363792419
      ],
      "min": [
        0.6036815643310547,
        0.922474205493927
      ],
      "type": "VEC2"
    },
    {
      "bufferView": 0,
      "byteOffset": 158160,
      "componentType": 5125,
      "count": 1140,
      "type": "SCALAR"
    },
    {
      "bufferView": 2,
      "byteOffset": 591960,
      "componentType": 5126,
      "count": 232,
      "max": [
        -1.1422386169433594,
        -2.384265184402466,
        -0.24327655136585236
      ],
      "min": [
        -1.2451190948486328,
        -2.7845914363861084,
        -3.244198799133301
      ],
      "type": "VEC3"
    },
    {
      "bufferView": 2,
      "byteOffset": 594744,
      "componentType": 5126,
      "count": 232,
      "max": [
        1.0,
        0.9979738593101501,
        0.9987307190895081
      ],
      "min": [
        -1.0,
        -0.9979738593101501,
        -0.996321976184845
      ],
      "type": "VEC3"
    },
    {
      "bufferView": 1,
      "byteOffset": 197320,
      "componentType": 5126,
      "count": 232,
      "max": [
        0.9809149503707886,
        0.9870444536209106
      ],
      "min": [
        0.8098493814468384,
        0.9594682455062866
      ],
      "type": "VEC2"
    },
    {
      "bufferView": 0,
      "byteOffset": 162720,
      "componentType": 5125,
      "count": 372,
      "type": "SCALAR"
    },
    {
      "bufferView": 2,
      "byteOffset": 597528,
      "componentType": 5126,
      "count": 232,
      "max": [
        -1.1422386169433594,
        -1.630003571510315,
        -3.1129567623138428
      ],
      "min": [
        -1.2451190948486328,
        -2.030329704284668,
        -6.113879203796387
      ],
      "type": "VEC3"
    },
    {
      "bufferView": 2,
      "byteOffset": 600312,
      "componentType": 5126,
      "count": 232,
      "max": [
        1.0,
        0.9979738593101501,
        0.9987307190895081
      ],
      "min": [
        -1.0,
        -0.9979738593101501,
        -0.996321976184845
      ],
      "type": "VEC3"
    },
    {
      "bufferView": 1,
      "byteOffset": 199176,
      "componentType": 5126,
      "count": 232,
      "max": [
        0.9809149503707886,
        0.9870444536209106
      ],
      "min": [
        0.8098493814468384,
        0.9594682455062866
      ],
      "type": "VEC2"
    },
    {
      "bufferView": 0,
      "byteOffset": 164208,
      "componentType": 5125,
      "count": 372,
      "type": "SCALAR"
    },
    {
      "bufferView": 2,
      "byteOffset": 603096,
      "componentType": 5126,
      "count": 676,
      "max": [
        -1.236074447631836,
        -2.4554760456085205,
        -0.3098334074020386
      ],
      "min": [
        -1.2709362506866455,
        -2.53692364692688,
        -0.3912811875343323
      ],
      "type": "VEC3"
    },
    {
      "bufferView": 2,
      "byteOffset": 611208,
      "componentType": 5126,
      "count": 676,
      "max": [
        1.0,
        0.9951876997947693,
        0.9951848983764648
      ],
      "min": [
        -1.0,
        -0.9951919913291931,
        -0.9951848983764648
      ],
      "type": "VEC3"
    },
    {
      "bufferView": 1,
      "byteOffset": 201032,
      "componentType": 5126,
      "count": 676,
      "max": [
        0.9810075759887695,
        0.9819211363792419
      ],
      "min": [
        0.6036815643310547,
        0.922474205493927
      ],
      "type": "VEC2"
    },
    {
      "bufferView": 0,
      "byteOffset": 165696,
      "componentType": 5125,
      "count": 1140,
      "type": "SCALAR"
    },
    {
      "bufferView": 2,
      "byteOffset": 619320,
      "componentType": 5126,
      "count": 658,
      "max": [
        -1.2394905090332031,
        -2.631098747253418,
        -3.0953922271728516
      ],
      "min": [
        -1.2743523120880127,
        -2.7125463485717773,
        -3.176839828491211
      ],
      "type": "VEC3"
    },
    {
      "bufferView": 2,
      "byteOffset": 627216,
      "componentType": 5126,
      "count": 658,
      "max": [
        1.0,
        0.9951878190040588,
        0.9951876997947693
      ],
      "min": [
        -1.0,
        -0.9951878190040588,
        -0.9951876997947693
      ],
      "type": "VEC3"
    },
    {
      "bufferView": 1,
      "byteOffset": 206440,
      "componentType": 5126,
      "count": 658,
      "max": [
        0.9810075759887695,
        0.9819211363792419
      ],
      "min": [
        0.6036815643310547,
        0.922474205493927
      ],
      "type": "VEC2"
    },
    {
      "bufferView": 0,
      "byteOffset": 170256,
      "componentType": 5125,
      "count": 1140,
      "type": "SCALAR"
    },
    {
      "bufferView": 2,
      "byteOffset": 635112,
      "componentType": 5126,
      "count": 688,
      "max": [
        -1.2333494424819946,
        -1.876836895942688,
        -5.965072154998779
      ],
      "min": [
        -1.2682112455368042,
        -1.9582847356796265,
        -6.046519756317139
      ],
      "type": "VEC3"
    },
    {
      "bufferView": 2,
      "byteOffset": 643368,
      "componentType": 5126,
      "count": 688,
      "max": [
        1.0,
        0.9951861500740051,
        0.9951878786087036
      ],
      "min": [
        -1.0,
        -0.9951859712600708,
        -0.9951878786087036
      ],
      "type": "VEC3"
    },
    {
      "bufferView": 1,
      "byteOffset": 211704,
      "componentType": 5126,
      "count": 688,
      "max": [
        0.9810075759887695,
        0.9819211363792419
      ],
      "min": [
        0.6036815643310547,
        0.922474205493927
      ],
      "type": "VEC2"
    },
    {
      "bufferView": 0,
      "byteOffset": 174816,
      "componentType": 5125,
      "count": 1140,
      "type": "SCALAR"
    },
    {
      "bufferView": 2,
      "byteOffset": 651624,
      "componentType": 5126,
      "count": 664,
      "max": [
        -1.2401615381240845,
        -1.70121431350708,
        -3.179513454437256
      ],
      "min": [
        -1.275023341178894,
        -1.7826621532440186,
        -3.2609610557556152
      ],
      "type": "VEC3"
    },
    {
      "bufferView": 2,
      "byteOffset": 659592,
      "componentType": 5126,
      "count": 664,
      "max": [
        1.0,
        0.9951858520507813,
        0.9951877593994141
      ],
      "min": [
        -1.0,
        -0.9951859712600708,
        -0.9951877593994141
      ],
      "type": "VEC3"
    },
    {
      "bufferView": 1,
      "byteOffset": 217208,
      "componentType": 5126,
      "count": 664,
      "max": [
        0.9810075759887695,
        0.9819211363792419
      ],
      "min": [
        0.6036815643310547,
        0.922474205493927
      ],
      "type": "VEC2"
    },
    {
      "bufferView": 0,
      "byteOffset": 179376,
      "componentType": 5125,
      "count": 1140,
      "type": "SCALAR"
    },
    {
      "bufferView": 2,
      "byteOffset": 667560,
      "componentType": 5126,
      "count": 24,
      "max": [
        0.3772349953651428,
        0.4791485369205475,
        1.5107227563858032
      ],
      "min": [
        -0.3772349953651428,
        0.2261708676815033,
        0.8587199449539185
      ],
      "type": "VEC3"
    },
    {
      "bufferView": 2,
      "byteOffset": 667848,
      "componentType": 5126,
      "count": 24,
      "max": [
        1.0,
        1.0,
        1.0
      ],
      "min": [
        -1.0,
        -1.0,
        -1.0
      ],
      "type": "VEC3"
    },
    {
      "bufferView": 1,
      "byteOffset": 222520,
      "componentType": 5126,
      "count": 24,
      "max": [
        0.9469138979911804,
        0.9491333961486816
      ],
      "min": [
        0.9335975050926208,
        0.9313780069351196
      ],
      "type": "VEC2"
    },
    {
      "bufferView": 0,
      "byteOffset": 183936,
      "componentType": 5125,
      "count": 36,
      "type": "SCALAR"
    },
    {
      "bufferView": 2,
      "byteOffset": 668136,
      "componentType": 5126,
      "count": 891,
      "max": [
        0.1602737158536911,
        -0.5217284560203552,
        1.6114654541015625
      ],
      "min": [
        -0.1602737158536911,
        -1.121535062789917,
        1.2832207679748535
      ],
      "type": "VEC3"
    },
    {
      "bufferView": 2,
      "byteOffset": 678828,
      "componentType": 5126,
      "count": 891,
      "max": [
        1.0,
        1.0,
        1.0
      ],
      "min": [
        -1.0,
        -1.0,
        -1.0
      ],
      "type": "VEC3"
    },
    {
      "bufferView": 1,
      "byteOffset": 222712,
      "componentType": 5126,
      "count": 891,
      "max": [
        0.973110556602478,
        0.9752241969108582
      ],
      "min": [
        0.05677086114883423,
        0.9424919486045837
      ],
      "type": "VEC2"
    },
    {
      "bufferView": 0,
      "byteOffset": 184080,
      "componentType": 5125,
      "count": 1476,
      "type": "SCALAR"
    },
    {
      "bufferView": 2,
      "byteOffset": 689520,
      "componentType": 5126,
      "count": 2962,
      "max": [
        0.9132747054100037,
        1.838018774986267,
        0.518600583076477
      ],
      "min": [
        -0.9132747054100037,
        -0.5902440547943115,
        -6.00874137878418
      ],
      "type": "VEC3"
    },
    {
      "bufferView": 2,
      "byteOffset": 725064,
      "componentType": 5126,
      "count": 2962,
      "max": [
        1.0,
        1.0,
        1.0
      ],
      "min": [
        -1.0,
        -1.0,
        -1.0
      ],
      "type": "VEC3"
    },
    {
      "bufferView": 1,
      "byteOffset": 229840,
      "componentType": 5126,
      "count": 2962,
      "max": [
        0.9360278844833374,
        1.0
      ],
      "min": [
        0.125,
        0.0
      ],
      "type": "VEC2"
    },
    {
      "bufferView": 0,
      "byteOffset": 189984,
      "componentType": 5125,
      "count": 4524,
      "type": "SCALAR"
    },
    {
      "bufferView": 2,
      "byteOffset": 760608,
      "componentType": 5126,
      "count": 1234,
      "max": [
        1.9700000286102295,
        0.6910000443458557,
        0.05999999865889549
      ],
      "min": [
        0.20200000703334808,
        -0.009000000543892384,
        -0.05999999865889549
      ],
      "type": "VEC3"
    },
    {
      "bufferView": 2,
      "byteOffset": 775416,
      "componentType": 5126,
      "count": 1234,
      "max": [
        1.0,
        1.0,
        1.0
      ],
      "min": [
        -1.0,
        -1.0,
        -1.0
      ],
      "type": "VEC3"
    },
    {
      "bufferView": 1,
      "byteOffset": 253536,
      "componentType": 5126,
      "count": 1234,
      "max": [
        1.0,
        1.0
      ],
      "min": [
        0.0,
        0.0
      ],
      "type": "VEC2"
    },
    {
      "bufferView": 0,
      "byteOffset": 208080,
      "componentType": 5125,
      "count": 2280,
      "type": "SCALAR"
    },
    {
      "bufferView": 2,
      "byteOffset": 790224,
      "componentType": 5126,
      "count": 1234,
      "max": [
        1.9700000286102295,
        0.6910000443458557,
        0.05999999865889549
      ],
      "min": [
        0.20200000703334808,
        -0.009000000543892384,
        -0.05999999865889549
      ],
      "type": "VEC3"
    },
    {
      "bufferView": 2,
      "byteOffset": 805032,
      "componentType": 5126,
      "count": 1234,
      "max": [
        1.0,
        1.0,
        1.0
      ],
      "min": [
        -1.0,
        -1.0,
        -1.0
      ],
      "type": "VEC3"
    },
    {
      "bufferView": 1,
      "byteOffset": 263408,
      "componentType": 5126,
      "count": 1234,
      "max": [
        1.0,
        1.0
      ],
      "min": [
        0.0,
        0.0
      ],
      "type": "VEC2"
    },
    {
      "bufferView": 0,
      "byteOffset": 217200,
      "componentType": 5125,
      "count": 2280,
      "type": "SCALAR"
    }
  ],
  "asset": {
    "extras": {
      "author": "Dewi (https://sketchfab.com/Dewi1911)",
      "license": "CC-BY-4.0 (http://creativecommons.org/licenses/by/4.0/)",
      "source": "https://sketchfab.com/3d-models/lowpoly-train-7242b3c0deb044db97639f7a6b125223",
      "title": "LowPoly Train"
    },
    "generator": "Sketchfab-12.55.0",
    "version": "2.0"
  },
  "bufferViews": [
    {
      "buffer": 0,
      "byteLength": 226320,
      "name": "floatBufferViews",
      "target": 34963
    },
    {
      "buffer": 0,
      "byteLength": 273280,
      "byteOffset": 226320,
      "byteStride": 8,
      "name": "floatBufferViews",
      "target": 34962
    },
    {
      "buffer": 0,
      "byteLength": 819840,
      "byteOffset": 499600,
      "byteStride": 12,
      "name": "floatBufferViews",
      "target": 34962
    }
  ],
  "buffers": [
    {
      "byteLength": 1319440,
      "uri": "scene.bin"
    }
  ],
  "images": [
    {
      "uri": "textures/Material.003_baseColor.png"
    }
  ],
  "materials": [
    {
      "doubleSided": true,
      "name": "Text__0",
      "pbrMetallicRoughness": {
        "metallicFactor": 0.0,
        "roughnessFactor": 0.6
      }
    },
    {
      "doubleSided": true,
      "name": "Material.003",
      "pbrMetallicRoughness": {
        "baseColorTexture": {
          "index": 0
        },
        "metallicFactor": 0.0,
        "roughnessFactor": 0.8211145618000169
      }
    },
    {
      "doubleSided": true,
      "name": "Material.004",
      "pbrMetallicRoughness": {
        "baseColorTexture": {
          "index": 0
        },
        "metallicFactor": 0.0,
        "roughnessFactor": 0.8211145618000169
      }
    },
    {
      "doubleSided": true,
      "name": "Material.007",
      "pbrMetallicRoughness": {
        "baseColorTexture": {
          "index": 0
        },
        "metallicFactor": 0.0,
        "roughnessFactor": 0.8211145618000169
      }
    },
    {
      "doubleSided": true,
      "name": "Material.012",
      "pbrMetallicRoughness": {
        "baseColorTexture": {
          "index": 0
        },
        "metallicFactor": 0.0,
        "roughnessFactor": 0.8211145618000169
      }
    },
    {
      "doubleSided": true,
      "name": "Material.008",
      "pbrMetallicRoughness": {
        "baseColorTexture": {
          "index": 0
        },
        "metallicFactor": 0.0,
        "roughnessFactor": 0.8211145618000169
      }
    },
    {
      "doubleSided": true,
      "name": "Material.014",
      "pbrMetallicRoughness": {
        "baseColorTexture": {
          "index": 0
        },
        "metallicFactor": 0.0,
        "roughnessFactor": 0.8211145618000169
      }
    },
    {
      "doubleSided": true,
      "name": "Material.013",
      "pbrMetallicRoughness": {
        "baseColorTexture": {
          "index": 0
        },
        "metallicFactor": 0.0,
        "roughnessFactor": 0.8211145618000169
      }
    },
    {
      "doubleSided": true,
      "name": "Material.020",
      "pbrMetallicRoughness": {
        "baseColorTexture": {
          "index": 0
        },
        "metallicFactor": 0.0,
        "roughnessFactor": 0.8211145618000169
      }
    },
    {
      "doubleSided": true,
      "name": "Material.001",
      "pbrMetallicRoughness": {
        "baseColorTexture": {
          "index": 0
        },
        "metallicFactor": 0.0,
        "roughnessFactor": 0.8211145618000169
      }
    },
    {
      "doubleSided": true,
      "name": "Material.005",
      "pbrMetallicRoughness": {
        "baseColorTexture": {
          "index": 0
        },
        "metallicFactor": 0.0,
        "roughnessFactor": 0.8211145618000169
      }
    },
    {
      "doubleSided": true,
      "name": "Material.006",
      "pbrMetallicRoughness": {
        "baseColorTexture": {
          "index": 0
        },
        "metallicFactor": 0.0,
        "roughnessFactor": 0.8211145618000169
      }
    },
    {
      "doubleSided": true,
      "name": "Material.009",
      "pbrMetallicRoughness": {
        "baseColorTexture": {
          "index": 0
        },
        "metallicFactor": 0.0,
        "roughnessFactor": 0.8211145618000169
      }
    },
    {
      "doubleSided": true,
      "name": "Material.002",
      "pbrMetallicRoughness": {
        "baseColorTexture": {
          "index": 0
        },
        "metallicFactor": 0.0,
        "roughnessFactor": 0.8211145618000169
      }
    },
    {
      "doubleSided": true,
      "name": "Material.017",
      "pbrMetallicRoughness": {
        "baseColorTexture": {
          "index": 0
        },
        "metallicFactor": 0.0,
        "roughnessFactor": 0.8211145618000169
      }
    },
    {
      "doubleSided": true,
      "name": "Material.018",
      "pbrMetallicRoughness": {
        "baseColorTexture": {
          "index": 0
        },
        "metallicFactor": 0.0,
        "roughnessFactor": 0.8211145618000169
      }
    },
    {
      "doubleSided": true,
      "name": "Material.023",
      "pbrMetallicRoughness": {
        "baseColorTexture": {
          "index": 0
        },
        "metallicFactor": 0.0,
        "roughnessFactor": 0.8211145618000169
      }
    },
    {
      "doubleSided": true,
      "name": "Material.021",
      "pbrMetallicRoughness": {
        "baseColorTexture": {
          "index": 0
        },
        "metallicFactor": 0.0,
        "roughnessFactor": 0.8211145618000169
      }
    },
    {
      "doubleSided": true,
      "name": "Material.022",
      "pbrMetallicRoughness": {
        "baseColorTexture": {
          "index": 0
        },
        "metallicFactor": 0.0,
        "roughnessFactor": 0.8211145618000169
      }
    },
    {
      "doubleSided": true,
      "name": "Material.026",
      "pbrMetallicRoughness": {
        "baseColorTexture": {
          "index": 0
        },
        "metallicFactor": 0.0,
        "roughnessFactor": 0.8211145618000169
      }
    },
    {
      "doubleSided": true,
      "name": "Material.025",
      "pbrMetallicRoughness": {
        "baseColorTexture": {
          "index": 0
        },
        "metallicFactor": 0.0,
        "roughnessFactor": 0.8211145618000169
      }
    },
    {
      "doubleSided": true,
      "name": "Material.024",
      "pbrMetallicRoughness": {
        "baseColorTexture": {
          "index": 0
        },
        "metallicFactor": 0.0,
        "roughnessFactor": 0.8211145618000169
      }
    },
    {
      "doubleSided": true,
      "name": "Material.032",
      "pbrMetallicRoughness": {
        "baseColorTexture": {
          "index": 0
        },
        "metallicFactor": 0.0,
        "roughnessFactor": 0.8211145618000169
      }
    },
    {
      "doubleSided": true,
      "name": "Material.031",
      "pbrMetallicRoughness": {
        "baseColorTexture": {
          "index": 0
        },
        "metallicFactor": 0.0,
        "roughnessFactor": 0.8211145618000169
      }
    },
    {
      "doubleSided": true,
      "name": "Material.030",
      "pbrMetallicRoughness": {
        "baseColorTexture": {
          "index": 0
        },
        "metallicFactor": 0.0,
        "roughnessFactor": 0.8211145618000169
      }
    },
    {
      "doubleSided": true,
      "name": "Material.029",
      "pbrMetallicRoughness": {
        "baseColorTexture": {
          "index": 0
        },
        "metallicFactor": 0.0,
        "roughnessFactor": 0.8211145618000169
      }
    },
    {
      "doubleSided": true,
      "name": "Material.028",
      "pbrMetallicRoughness": {
        "baseColorTexture": {
          "index": 0
        },
        "metallicFactor": 0.0,
        "roughnessFactor": 0.8211145618000169
      }
    },
    {
      "doubleSided": true,
      "name": "Material.027",
      "pbrMetallicRoughness": {
        "baseColorTexture": {
          "index": 0
        },
        "metallicFactor": 0.0,
        "roughnessFactor": 0.8211145618000169
      }
    },
    {
      "doubleSided": true,
      "name": "Material.033",
      "pbrMetallicRoughness": {
        "baseColorTexture": {
          "index": 0
        },
        "metallicFactor": 0.0,
        "roughnessFactor": 0.8211145618000169
      }
    },
    {
      "doubleSided": true,
      "name": "Material.034",
      "pbrMetallicRoughness": {
        "baseColorTexture": {
          "index": 0
        },
        "metallicFactor": 0.0,
        "roughnessFactor": 0.8211145618000169
      }
    },
    {
      "doubleSided": true,
      "name": "Material.035",
      "pbrMetallicRoughness": {
        "baseColorTexture": {
          "index": 0
        },
        "metallicFactor": 0.0,
        "roughnessFactor": 0.8211145618000169
      }
    }
  ],
  "meshes": [
    {
      "name": "Cylinder_Material.003_0",
      "primitives": [
        {
          "attributes": {
            "NORMAL": 1,
            "POSITION": 0,
            "TEXCOORD_0": 2
          },
          "indices": 3,
          "material": 1,
          "mode": 4
        }
      ]
    },
    {
      "name": "Cylinder_Material.004_0",
      "primitives": [
        {
          "attributes": {
            "NORMAL": 5,
            "POSITION": 4,
            "TEXCOORD_0": 6
          },
          "indices": 7,
          "material": 2,
          "mode": 4
        }
      ]
    },
    {
      "name": "Cylinder_Material.007_0",
      "primitives": [
        {
          "attributes": {
            "NORMAL": 9,
            "POSITION": 8,
            "TEXCOORD_0": 10
          },
          "indices": 11,
          "material": 3,
          "mode": 4
        }
      ]
    },
    {
      "name": "Cylinder_Material.012_0",
      "primitives": [
        {
          "attributes": {
            "NORMAL": 13,
            "POSITION": 12,
            "TEXCOORD_0": 14
          },
          "indices": 15,
          "material": 4,
          "mode": 4
        }
      ]
    },
    {
      "name": "Cylinder_Material.008_0",
      "primitives": [
        {
          "attributes": {
            "NORMAL": 17,
            "POSITION": 16,
            "TEXCOORD_0": 18
          },
          "indices": 19,
          "material": 5,
          "mode": 4
        }
      ]
    },
    {
      "name": "Cylinder_Material.014_0",
      "primitives": [
        {
          "attributes": {
            "NORMAL": 21,
            "POSITION": 20,
            "TEXCOORD_0": 22
          },
          "indices": 23,
          "material": 6,
          "mode": 4
        }
      ]
    },
    {
      "name": "Cylinder_Material.013_0",
      "primitives": [
        {
          "attributes": {
            "NORMAL": 25,
            "POSITION": 24,
            "TEXCOORD_0": 26
          },
          "indices": 27,
          "material": 7,
          "mode": 4
        }
      ]
    },
    {
      "name": "Cylinder_Material.020_0",
      "primitives": [
        {
          "attributes": {
            "NORMAL": 29,
            "POSITION": 28,
            "TEXCOORD_0": 30
          },
          "indices": 31,
          "material": 8,
          "mode": 4
        }
      ]
    },
    {
      "name": "Cylinder_Material.001_0",
      "primitives": [
        {
          "attributes": {
            "NORMAL": 33,
            "POSITION": 32,
            "TEXCOORD_0": 34
          },
          "indices": 35,
          "material": 9,
          "mode": 4
        }
      ]
    },
    {
      "name": "Cylinder_Material.005_0",
      "primitives": [
        {
          "attributes": {
            "NORMAL": 37,
            "POSITION": 36,
            "TEXCOORD_0": 38
          },
          "indices": 39,
          "material": 10,
          "mode": 4
        }
      ]
    },
    {
      "name": "Cylinder_Material.006_0",
      "primitives": [
        {
          "attributes": {
            "NORMAL": 41,
            "POSITION": 40,
            "TEXCOORD_0": 42
          },
          "indices": 43,
          "material": 11,
          "mode": 4
        }
      ]
    },
    {
      "name": "Cylinder_Material.009_0",
      "primitives": [
        {
          "attributes": {
            "NORMAL": 45,
            "POSITION": 44,
            "TEXCOORD_0": 46
          },
          "indices": 47,
          "material": 12,
          "mode": 4
        }
      ]
    },
    {
      "name": "Cylinder_Material.002_0",
      "primitives": [
        {
          "attributes": {
            "NORMAL": 49,
            "POSITION": 48,
            "TEXCOORD_0": 50
          },
          "indices": 51,
          "material": 13,
          "mode": 4
        }
      ]
    },
    {
      "name": "Cylinder_Material.017_0",
      "primitives": [
        {
          "attributes": {
            "NORMAL": 53,
            "POSITION": 52,
            "TEXCOORD_0": 54
          },
          "indices": 55,
          "material": 14,
          "mode": 4
        }
      ]
    },
    {
      "name": "Cylinder_Material.018_0",
      "primitives": [
        {
          "attributes": {
            "NORMAL": 57,
            "POSITION": 56,
            "TEXCOORD_0": 58
          },
          "indices": 59,
          "material": 15,
          "mode": 4
        }
      ]
    },
    {
      "name": "Cylinder_Material.023_0",
      "primitives": [
        {
          "attributes": {
            "NORMAL": 61,
            "POSITION": 60,
            "TEXCOORD_0": 62
          },
          "indices": 63,
          "material": 16,
          "mode": 4
        }
      ]
    },
    {
      "name": "Cylinder_Material.021_0",
      "primitives": [
        {
          "attributes": {
            "NORMAL": 65,
            "POSITION": 64,
            "TEXCOORD_0": 66
          },
          "indices": 67,
          "material": 17,
          "mode": 4
        }
      ]
    },
    {
      "name": "Cylinder_Material.022_0",
      "primitives": [
        {
          "attributes": {
            "NORMAL": 69,
            "POSITION": 68,
            "TEXCOORD_0": 70
          },
          "indices": 71,
          "material": 18,
          "mode": 4
        }
      ]
    },
    {
      "name": "Cylinder_Material.026_0",
      "primitives": [
        {
          "attributes": {
            "NORMAL": 73,
            "POSITION": 72,
            "TEXCOORD_0": 74
          },
          "indices": 75,
          "material": 19,
          "mode": 4
        }
      ]
    },
    {
      "name": "Cylinder_Material.025_0",
      "primitives": [
        {
          "attributes": {
            "NORMAL": 77,
            "POSITION": 76,
            "TEXCOORD_0": 78
          },
          "indices": 79,
          "material": 20,
          "mode": 4
        }
      ]
    },
    {
      "name": "Cylinder_Material.024_0",
      "primitives": [
        {
          "attributes": {
            "NORMAL": 81,
            "POSITION": 80,
            "TEXCOORD_0": 82
          },
          "indices": 83,
          "material": 21,
          "mode": 4
        }
      ]
    },
    {
      "name": "Cylinder_Material.032_0",
      "primitives": [
        {
          "attributes": {
            "NORMAL": 85,
            "POSITION": 84,
            "TEXCOORD_0": 86
          },
          "indices": 87,
          "material": 22,
          "mode": 4
        }
      ]
    },
    {
      "name": "Cylinder_Material.031_0",
      "primitives": [
        {
          "attributes": {
            "NORMAL": 89,
            "POSITION": 88,
            "TEXCOORD_0": 90
          },
          "indices": 91,
          "material": 23,
          "mode": 4
        }
      ]
    },
    {
      "name": "Cylinder_Material.030_0",
      "primitives": [
        {
          "attributes": {
            "NORMAL": 93,
            "POSITION": 92,
            "TEXCOORD_0": 94
          },
          "indices": 95,
          "material": 24,
          "mode": 4
        }
      ]
    },
    {
      "name": "Cylinder_Material.029_0",
      "primitives": [
        {
          "attributes": {
            "NORMAL": 97,
            "POSITION": 96,
            "TEXCOORD_0": 98
          },
          "indices": 99,
          "material": 25,
          "mode": 4
        }
      ]
    },
    {
      "name": "Cylinder_Material.028_0",
      "primitives": [
        {
          "attributes": {
            "NORMAL": 101,
            "POSITION": 100,
            "TEXCOORD_0": 102
          },
          "indices": 103,
          "material": 26,
          "mode": 4
        }
      ]
    },
    {
      "name": "Cylinder_Material.027_0",
      "primitives": [
        {
          "attributes": {
            "NORMAL": 105,
            "POSITION": 104,
            "TEXCOORD_0": 106
          },
          "indices": 107,
          "material": 27,
          "mode": 4
        }
      ]
    },
    {
      "name": "Cylinder_Material.033_0",
      "primitives": [
        {
          "attributes": {
            "NORMAL": 109,
            "POSITION": 108,
            "TEXCOORD_0": 110
          },
          "indices": 111,
          "material": 28,
          "mode": 4
        }
      ]
    },
    {
      "name": "Cylinder_Material.034_0",
      "primitives": [
        {
          "attributes": {
            "NORMAL": 113,
            "POSITION": 112,
            "TEXCOORD_0": 114
          },
          "indices": 115,
          "material": 29,
          "mode": 4
        }
      ]
    },
    {
      "name": "Cylinder_Material.035_0",
      "primitives": [
        {
          "attributes": {
            "NORMAL": 117,
            "POSITION": 116,
            "TEXCOORD_0": 118
          },
          "indices": 119,
          "material": 30,
          "mode": 4
        }
      ]
    },
    {
      "name": "Text__0",
      "primitives": [
        {
          "attributes": {
            "NORMAL": 121,
            "POSITION": 120,
            "TEXCOORD_0": 122
          },
          "indices": 123,
          "material": 0,
          "mode": 4
        }
      ]
    },
    {
      "name": "Text.001__0",
      "primitives": [
        {
          "attributes": {
            "NORMAL": 125,
            "POSITION": 124,
            "TEXCOORD_0": 126
          },
          "indices": 127,
          "material": 0,
          "mode": 4
        }
      ]
    }
  ],
  "nodes": [
    {
      "children": [
        1
      ],
      "matrix": [
        1.0,
        0.0,
        0.0,
        0.0,
        0.0,
        2.220446049250313e-16,
        -1.0,
        0.0,
        0.0,
        1.0,
        2.220446049250313e-16,
        0.0,
        0.0,
        0.0,
        0.0,
        1.0
      ],
      "name": "Sketchfab_model"
    },
    {
      "children": [
        2
      ],
      "matrix": [
        0.009999999776482582,
        0.0,
        0.0,
        0.0,
        0.0,
        0.0,
        0.009999999776482582,
        0.0,
        0.0,
        -0.009999999776482582,
        0.0,
        0.0,
        0.0,
        0.0,
        0.0,
        1.0
      ],
      "name": "Train.fbx"
    },
    {
      "children": [
        3,
        34,
        36
      ],
      "name": "RootNode"
    },
    {
      "children": [
        4,
        5,
        6,
        7,
        8,
        9,
        10,
        11,
        12,
        13,
        14,
        15,
        16,
        17,
        18,
        19,
        20,
        21,
        22,
        23,
        24,
        25,
        26,
        27,
        28,
        29,
        30,
        31,
        32,
        33
      ],
      "matrix": [
        100.0,
        0.0,
        0.0,
        0.0,
        0.0,
        99.9999999999999,
        4.371138828673792e-06,
        0.0,
        0.0,
        -4.371138828673792e-06,
        99.9999999999999,
        0.0,
        0.0,
        0.0,
        0.0,
        1.0
      ],
      "name": "Cylinder"
    },
    {
      "mesh": 0,
      "name": "Cylinder_Material.003_0"
    },
    {
      "mesh": 1,
      "name": "Cylinder_Material.004_0"
    },
    {
      "mesh": 2,
      "name": "Cylinder_Material.007_0"
    },
    {
      "mesh": 3,
      "name": "Cylinder_Material.012_0"
    },
    {
      "mesh": 4,
      "name": "Cylinder_Material.008_0"
    },
    {
      "mesh": 5,
      "name": "Cylinder_Material.014_0"
    },
    {
      "mesh": 6,
      "name": "Cylinder_Material.013_0"
    },
    {
      "mesh": 7,
      "name": "Cylinder_Material.020_0"
    },
    {
      "mesh": 8,
      "name": "Cylinder_Material.001_0"
    },
    {
      "mesh": 9,
      "name": "Cylinder_Material.005_0"
    },
    {
      "mesh": 10,
      "name": "Cylinder_Material.006_0"
    },
    {
      "mesh": 11,
      "name": "Cylinder_Material.009_0"
    },
    {
      "mesh": 12,
      "name": "Cylinder_Material.002_0"
    },
    {
      "mesh": 13,
      "name": "Cylinder_Material.017_0"
    },
    {
      "mesh": 14,
      "name": "Cylinder_Material.018_0"
    },
    {
      "mesh": 15,
      "name": "Cylinder_Material.023_0"
    },
    {
      "mesh": 16,
      "name": "Cylinder_Material.021_0"
    },
    {
      "mesh": 17,
      "name": "Cylinder_Material.022_0"
    },
    {
      "mesh": 18,
      "name": "Cylinder_Material.026_0"
    },
    {
      "mesh": 19,
      "name": "Cylinder_Material.025_0"
    },
    {
      "mesh": 20,
      "name": "Cylinder_Material.024_0"
    },
    {
      "mesh": 21,
      "name": "Cylinder_Material.032_0"
    },
    {
      "mesh": 22,
      "name": "Cylinder_Material.031_0"
    },
    {
      "mesh": 23,
      "name": "Cylinder_Material.030_0"
    },
    {
      "mesh": 24,
      "name": "Cylinder_Material.029_0"
    },
    {
      "mesh": 25,
      "name": "Cylinder_Material.028_0"
    },
    {
      "mesh": 26,
      "name": "Cylinder_Material.027_0"
    },
    {
      "mesh": 27,
      "name": "Cylinder_Material.033_0"
    },
    {
      "mesh": 28,
      "name": "Cylinder_Material.034_0"
    },
    {
      "mesh": 29,
      "name": "Cylinder_Material.035_0"
    },
    {
      "children": [
        35
      ],
      "matrix": [
        27.02765464782715,
        0.0,
        0.0,
        0.0,
        0.0,
        27.02765464782712,
        1.1814163067910296e-06,
        0.0,
        0.0,
        -1.1814163067910296e-06,
        27.02765464782712,
        0.0,
        -27.995136260986328,
        25.840177536010742,
        151.10743713378906,
        1.0
      ],
      "name": "Text"
    },
    {
      "mesh": 30,
      "name": "Text__0"
    },
    {
      "children": [
        37
      ],
      "matrix": [
        2.0405311539895564e-06,
        1.7885401541969077e-22,
        -27.02765464782707,
        0.0,
        1.1814164988340627e-06,
        27.02765464782712,
        8.919446422295292e-14,
        0.0,
        27.027654647827045,
        -1.181416498834066e-06,
        2.0405311539895564e-06,
        0.0,
        151.27059936523438,
        -27.680830001831055,
        -475.9886169433594,
        1.0
      ],
      "name": "Text.001"
    },
    {
      "mesh": 31,
      "name": "Text.001__0"
    }
  ],
  "samplers": [
    {
      "magFilter": 9729,
      "minFilter": 9987,
      "wrapS": 10497,
      "wrapT": 10497
    }
  ],
  "scene": 0,
  "scenes": [
    {
      "name": "Sketchfab_Scene",
      "nodes": [
        0
      ]
    }
  ],
  "textures": [
    {
      "sampler": 0,
      "source": 0
    }
  ]
}
